Coordinates
nRows=81
nColumns=2
inDegrees=yes
endheader
time	ankle_angle_r	
4.36593	  9.323068	
4.4375	  9.262448	
4.50907	  9.246826	
4.58065	  9.253858	
4.65222	  9.294214	
4.72379	  9.246826	
4.79536	  9.201050	
4.86694	  9.262085	
4.93851	  9.292603	
5.01008	  9.237351	
5.08165	  9.185791	
5.15323	  9.272820	
5.2248	  9.241667	
5.29637	  9.206001	
5.36794	  9.262085	
5.43952	  9.227032	
5.51109	  9.288275	
5.58266	  9.205170	
5.65423	  9.212784	
5.72581	  9.254233	
5.79738	  9.219804	
5.86895	  9.262085	
5.94052	  9.289523	
6.0121	  9.384155	
6.08367	  9.320457	
6.15524	  9.244370	
6.22681	  9.303367	
6.29839	  9.281422	
6.36996	  9.323120	
6.44153	  9.199427	
6.5131	  9.221969	
6.58468	  9.352430	
6.65625	  9.231567	
6.72782	  9.338379	
6.7994	  9.278510	
6.87097	  9.322745	
6.94254	  9.276843	
7.01411	  9.216350	
7.08569	  9.307364	
7.15726	  9.337922	
7.22883	  9.277344	
7.3004	  9.186665	
7.37198	  9.291521	
7.44355	  9.292603	
7.51512	  9.307861	
7.58669	  9.246826	
7.65827	  9.262085	
7.72984	  9.309982	
7.80141	  9.236226	
7.87298	  9.216309	
7.94456	  9.249572	
8.01613	  9.295556	
8.0877	  9.283667	
8.15927	  9.216309	
8.23085	  9.273767	
8.30242	  9.338379	
8.37399	  9.254813	
8.44556	  9.266287	
8.51714	  9.303452	
8.58871	  9.260678	
8.66028	  9.235611	
8.73185	  9.140015	
8.80343	  9.287361	
8.875	  9.257726	
8.94657	  9.319177	
9.01815	  9.235095	
9.08972	  9.286529	
9.16129	  9.277344	
9.23286	  9.220519	
9.30444	  9.216309	
9.37601	  9.187239	
9.44758	  9.307861	
9.51915	  9.262085	
9.59073	  9.201050	
9.6623	  9.277344	
9.73387	  9.277977	
9.80544	  9.247875	
9.87702	  9.255188	
9.94859	  9.277344	
10.0202	  9.231567	
10.0917	  9.164259	
